<svg width="19" height="19" viewBox="0 0 19 19" fill="none" xmlns="http://www.w3.org/2000/svg">
<path d="M7.36038 11.9959C7.28601 11.7076 7.13575 11.4446 6.92523 11.234C6.71471 11.0235 6.45162 10.8733 6.16334 10.7989L1.05278 9.48105C0.96559 9.45631 0.888851 9.40379 0.834208 9.33148C0.779565 9.25917 0.75 9.17101 0.75 9.08037C0.75 8.98974 0.779565 8.90158 0.834208 8.82926C0.888851 8.75695 0.96559 8.70444 1.05278 8.67969L6.16334 7.36103C6.45152 7.28673 6.71454 7.13659 6.92505 6.92622C7.13556 6.71586 7.28588 6.45295 7.36038 6.16482L8.67821 1.05426C8.70271 0.966724 8.75517 0.889606 8.82759 0.834671C8.90001 0.779736 8.98841 0.75 9.07931 0.75C9.17021 0.75 9.25861 0.779736 9.33103 0.834671C9.40345 0.889606 9.45591 0.966724 9.48041 1.05426L10.7974 6.16482C10.8718 6.4531 11.022 6.71619 11.2326 6.92671C11.4431 7.13723 11.7062 7.28749 11.9945 7.36186L17.105 8.67886C17.1929 8.7031 17.2704 8.7555 17.3256 8.82803C17.3809 8.90056 17.4108 8.98921 17.4108 9.08037C17.4108 9.17154 17.3809 9.26018 17.3256 9.33271C17.2704 9.40524 17.1929 9.45765 17.105 9.48189L11.9945 10.7989C11.7062 10.8733 11.4431 11.0235 11.2326 11.234C11.022 11.4446 10.8718 11.7076 10.7974 11.9959L9.47958 17.1065C9.45508 17.194 9.40262 17.2711 9.3302 17.3261C9.25778 17.381 9.16938 17.4107 9.07848 17.4107C8.98758 17.4107 8.89918 17.381 8.82676 17.3261C8.75434 17.2711 8.70188 17.194 8.67738 17.1065L7.36038 11.9959Z" stroke="black" stroke-width="1.5" stroke-linecap="round" stroke-linejoin="round"/>
<path d="M15.743 1.58301V4.91507" stroke="black" stroke-width="1.5" stroke-linecap="round" stroke-linejoin="round"/>
<path d="M17.4091 3.24902H14.077" stroke="black" stroke-width="1.5" stroke-linecap="round" stroke-linejoin="round"/>
<path d="M2.41476 13.2451V14.9112" stroke="black" stroke-width="1.5" stroke-linecap="round" stroke-linejoin="round"/>
<path d="M3.24779 14.0781H1.58176" stroke="black" stroke-width="1.5" stroke-linecap="round" stroke-linejoin="round"/>
</svg>
