<svg width="17" height="19" viewBox="0 0 17 19" fill="none" xmlns="http://www.w3.org/2000/svg">
<path d="M13.2452 5.7481C14.6254 5.7481 15.7443 4.62924 15.7443 3.24905C15.7443 1.86886 14.6254 0.75 13.2452 0.75C11.865 0.75 10.7462 1.86886 10.7462 3.24905C10.7462 4.62924 11.865 5.7481 13.2452 5.7481Z" stroke="black" stroke-width="1.5" stroke-linecap="round" stroke-linejoin="round"/>
<path d="M3.24905 11.5792C4.62924 11.5792 5.7481 10.4603 5.7481 9.0801C5.7481 7.69992 4.62924 6.58105 3.24905 6.58105C1.86886 6.58105 0.75 7.69992 0.75 9.0801C0.75 10.4603 1.86886 11.5792 3.24905 11.5792Z" stroke="black" stroke-width="1.5" stroke-linecap="round" stroke-linejoin="round"/>
<path d="M13.2452 17.4102C14.6254 17.4102 15.7443 16.2913 15.7443 14.9112C15.7443 13.531 14.6254 12.4121 13.2452 12.4121C11.865 12.4121 10.7462 13.531 10.7462 14.9112C10.7462 16.2913 11.865 17.4102 13.2452 17.4102Z" stroke="black" stroke-width="1.5" stroke-linecap="round" stroke-linejoin="round"/>
<path d="M5.40656 10.3379L11.0961 13.6533" stroke="black" stroke-width="1.5" stroke-linecap="round" stroke-linejoin="round"/>
<path d="M11.0877 4.50684L5.40656 7.82224" stroke="black" stroke-width="1.5" stroke-linecap="round" stroke-linejoin="round"/>
</svg>
